{"asset":{"version":"2.0","generator":"Blockbench 4.12.5 glTF exporter"},"scenes":[{"nodes":[21],"name":"blockbench_export"}],"scene":0,"nodes":[{"name":"left_forearm","mesh":0},{"translation":[-0.625,-3.125,0],"name":"left_elbow","children":[0]},{"translation":[-0.625,1.25,0],"name":"left_upper_arm","mesh":1},{"translation":[-1.875,5.625,-0.3125],"name":"left_shoulder","children":[1,2]},{"name":"right_forearm","mesh":2},{"translation":[0.625,-3.125,0],"name":"right_elbow","children":[4]},{"translation":[0.625,0.625,0],"name":"right_upper_arm","mesh":3},{"translation":[1.875,5.625,-0.3125],"name":"right_shoulder","children":[5,6]},{"translation":[0,-1.25,0],"name":"right_shin","mesh":4},{"translation":[0,-3.125,0],"name":"right_knee","children":[8]},{"translation":[-0.625,-0.625,0],"name":"right_thigh","mesh":5},{"translation":[0.9375,0,-0.3125],"name":"right_hip","children":[9,10]},{"translation":[0,-1.25,0],"name":"left_shin","mesh":6},{"translation":[0,-3.125,0],"name":"left_knee","children":[12]},{"translation":[-0.625,-0.625,0],"name":"left_thigh","mesh":7},{"translation":[-0.9375,0,-0.3125],"name":"left_hip","children":[13,14]},{"translation":[0,0,-0.3125],"name":"head","mesh":8},{"translation":[0,8.75,-0.3125],"name":"head","children":[16]},{"translation":[0,2.5,0],"name":"body","mesh":9},{"translation":[-0.3125,8.125,0],"name":"neck","mesh":10},{"translation":[0,6.25,0],"name":"body","children":[3,7,11,15,17,18,19]},{"children":[20]}],"bufferViews":[{"buffer":0,"byteOffset":0,"byteLength":288,"target":34962,"byteStride":12},{"buffer":0,"byteOffset":288,"byteLength":288,"target":34962,"byteStride":12},{"buffer":0,"byteOffset":576,"byteLength":192,"target":34962,"byteStride":8},{"buffer":0,"byteOffset":768,"byteLength":72,"target":34963},{"buffer":0,"byteOffset":840,"byteLength":288,"target":34962,"byteStride":12},{"buffer":0,"byteOffset":1128,"byteLength":288,"target":34962,"byteStride":12},{"buffer":0,"byteOffset":1416,"byteLength":192,"target":34962,"byteStride":8},{"buffer":0,"byteOffset":1608,"byteLength":72,"target":34963},{"buffer":0,"byteOffset":1680,"byteLength":288,"target":34962,"byteStride":12},{"buffer":0,"byteOffset":1968,"byteLength":288,"target":34962,"byteStride":12},{"buffer":0,"byteOffset":2256,"byteLength":192,"target":34962,"byteStride":8},{"buffer":0,"byteOffset":2448,"byteLength":72,"target":34963},{"buffer":0,"byteOffset":2520,"byteLength":288,"target":34962,"byteStride":12},{"buffer":0,"byteOffset":2808,"byteLength":288,"target":34962,"byteStride":12},{"buffer":0,"byteOffset":3096,"byteLength":192,"target":34962,"byteStride":8},{"buffer":0,"byteOffset":3288,"byteLength":72,"target":34963},{"buffer":0,"byteOffset":3360,"byteLength":288,"target":34962,"byteStride":12},{"buffer":0,"byteOffset":3648,"byteLength":288,"target":34962,"byteStride":12},{"buffer":0,"byteOffset":3936,"byteLength":192,"target":34962,"byteStride":8},{"buffer":0,"byteOffset":4128,"byteLength":72,"target":34963},{"buffer":0,"byteOffset":4200,"byteLength":288,"target":34962,"byteStride":12},{"buffer":0,"byteOffset":4488,"byteLength":288,"target":34962,"byteStride":12},{"buffer":0,"byteOffset":4776,"byteLength":192,"target":34962,"byteStride":8},{"buffer":0,"byteOffset":4968,"byteLength":72,"target":34963},{"buffer":0,"byteOffset":5040,"byteLength":288,"target":34962,"byteStride":12},{"buffer":0,"byteOffset":5328,"byteLength":288,"target":34962,"byteStride":12},{"buffer":0,"byteOffset":5616,"byteLength":192,"target":34962,"byteStride":8},{"buffer":0,"byteOffset":5808,"byteLength":72,"target":34963},{"buffer":0,"byteOffset":5880,"byteLength":288,"target":34962,"byteStride":12},{"buffer":0,"byteOffset":6168,"byteLength":288,"target":34962,"byteStride":12},{"buffer":0,"byteOffset":6456,"byteLength":192,"target":34962,"byteStride":8},{"buffer":0,"byteOffset":6648,"byteLength":72,"target":34963},{"buffer":0,"byteOffset":6720,"byteLength":288,"target":34962,"byteStride":12},{"buffer":0,"byteOffset":7008,"byteLength":288,"target":34962,"byteStride":12},{"buffer":0,"byteOffset":7296,"byteLength":192,"target":34962,"byteStride":8},{"buffer":0,"byteOffset":7488,"byteLength":72,"target":34963},{"buffer":0,"byteOffset":7560,"byteLength":288,"target":34962,"byteStride":12},{"buffer":0,"byteOffset":7848,"byteLength":288,"target":34962,"byteStride":12},{"buffer":0,"byteOffset":8136,"byteLength":192,"target":34962,"byteStride":8},{"buffer":0,"byteOffset":8328,"byteLength":72,"target":34963},{"buffer":0,"byteOffset":8400,"byteLength":240,"target":34962,"byteStride":12},{"buffer":0,"byteOffset":8640,"byteLength":240,"target":34962,"byteStride":12},{"buffer":0,"byteOffset":8880,"byteLength":160,"target":34962,"byteStride":8},{"buffer":0,"byteOffset":9040,"byteLength":60,"target":34963},{"buffer":0,"byteOffset":9100,"byteLength":4},{"buffer":0,"byteOffset":9104,"byteLength":16},{"buffer":0,"byteOffset":9120,"byteLength":4},{"buffer":0,"byteOffset":9124,"byteLength":12},{"buffer":0,"byteOffset":9136,"byteLength":4},{"buffer":0,"byteOffset":9140,"byteLength":12},{"buffer":0,"byteOffset":9152,"byteLength":4},{"buffer":0,"byteOffset":9156,"byteLength":16},{"buffer":0,"byteOffset":9172,"byteLength":4},{"buffer":0,"byteOffset":9176,"byteLength":12},{"buffer":0,"byteOffset":9188,"byteLength":4},{"buffer":0,"byteOffset":9192,"byteLength":12},{"buffer":0,"byteOffset":9204,"byteLength":4},{"buffer":0,"byteOffset":9208,"byteLength":16},{"buffer":0,"byteOffset":9224,"byteLength":4},{"buffer":0,"byteOffset":9228,"byteLength":12},{"buffer":0,"byteOffset":9240,"byteLength":4},{"buffer":0,"byteOffset":9244,"byteLength":12},{"buffer":0,"byteOffset":9256,"byteLength":4},{"buffer":0,"byteOffset":9260,"byteLength":16},{"buffer":0,"byteOffset":9276,"byteLength":4},{"buffer":0,"byteOffset":9280,"byteLength":12},{"buffer":0,"byteOffset":9292,"byteLength":4},{"buffer":0,"byteOffset":9296,"byteLength":12},{"buffer":0,"byteOffset":9308,"byteLength":4},{"buffer":0,"byteOffset":9312,"byteLength":16},{"buffer":0,"byteOffset":9328,"byteLength":4},{"buffer":0,"byteOffset":9332,"byteLength":12},{"buffer":0,"byteOffset":9344,"byteLength":4},{"buffer":0,"byteOffset":9348,"byteLength":12},{"buffer":0,"byteOffset":9360,"byteLength":4},{"buffer":0,"byteOffset":9364,"byteLength":16},{"buffer":0,"byteOffset":9380,"byteLength":4},{"buffer":0,"byteOffset":9384,"byteLength":12},{"buffer":0,"byteOffset":9396,"byteLength":4},{"buffer":0,"byteOffset":9400,"byteLength":12},{"buffer":0,"byteOffset":9412,"byteLength":4},{"buffer":0,"byteOffset":9416,"byteLength":16},{"buffer":0,"byteOffset":9432,"byteLength":4},{"buffer":0,"byteOffset":9436,"byteLength":12},{"buffer":0,"byteOffset":9448,"byteLength":4},{"buffer":0,"byteOffset":9452,"byteLength":12},{"buffer":0,"byteOffset":9464,"byteLength":4},{"buffer":0,"byteOffset":9468,"byteLength":16},{"buffer":0,"byteOffset":9484,"byteLength":4},{"buffer":0,"byteOffset":9488,"byteLength":12},{"buffer":0,"byteOffset":9500,"byteLength":4},{"buffer":0,"byteOffset":9504,"byteLength":12},{"buffer":0,"byteOffset":9516,"byteLength":4},{"buffer":0,"byteOffset":9520,"byteLength":16},{"buffer":0,"byteOffset":9536,"byteLength":4},{"buffer":0,"byteOffset":9540,"byteLength":12},{"buffer":0,"byteOffset":9552,"byteLength":4},{"buffer":0,"byteOffset":9556,"byteLength":12},{"buffer":0,"byteOffset":9568,"byteLength":4},{"buffer":0,"byteOffset":9572,"byteLength":16},{"buffer":0,"byteOffset":9588,"byteLength":4},{"buffer":0,"byteOffset":9592,"byteLength":12},{"buffer":0,"byteOffset":9604,"byteLength":4},{"buffer":0,"byteOffset":9608,"byteLength":12}],"buffers":[{"byteLength":9620,"uri":"data:application/octet-stream;base64,"}],"accessors":[{"bufferView":0,"componentType":5126,"count":24,"max":[0.625,1.875,0.625],"min":[-0.625,-1.875,-0.625],"type":"VEC3"},{"bufferView":1,"componentType":5126,"count":24,"max":[1,1,1],"min":[-1,-1,-1],"type":"VEC3"},{"bufferView":2,"componentType":5126,"count":24,"max":[0.875,0.75],"min":[0.25,0],"type":"VEC2"},{"bufferView":3,"componentType":5123,"count":36,"max":[23],"min":[0],"type":"SCALAR"},{"bufferView":4,"componentType":5126,"count":24,"max":[0.625,1.25,0.625],"min":[-0.625,-2.5,-0.625],"type":"VEC3"},{"bufferView":5,"componentType":5126,"count":24,"max":[1,1,1],"min":[-1,-1,-1],"type":"VEC3"},{"bufferView":6,"componentType":5126,"count":24,"max":[0.625,0.84375],"min":[0.1875,0],"type":"VEC2"},{"bufferView":7,"componentType":5123,"count":36,"max":[23],"min":[0],"type":"SCALAR"},{"bufferView":8,"componentType":5126,"count":24,"max":[0.625,1.875,0.625],"min":[-0.625,-1.875,-0.625],"type":"VEC3"},{"bufferView":9,"componentType":5126,"count":24,"max":[1,1,1],"min":[-1,-1,-1],"type":"VEC3"},{"bufferView":10,"componentType":5126,"count":24,"max":[0.875,0.75],"min":[0.625,0],"type":"VEC2"},{"bufferView":11,"componentType":5123,"count":36,"max":[23],"min":[0],"type":"SCALAR"},{"bufferView":12,"componentType":5126,"count":24,"max":[0.625,1.875,0.625],"min":[-0.625,-1.875,-0.625],"type":"VEC3"},{"bufferView":13,"componentType":5126,"count":24,"max":[1,1,1],"min":[-1,-1,-1],"type":"VEC3"},{"bufferView":14,"componentType":5126,"count":24,"max":[0.875,0.78125],"min":[0.3125,0.125],"type":"VEC2"},{"bufferView":15,"componentType":5123,"count":36,"max":[23],"min":[0],"type":"SCALAR"},{"bufferView":16,"componentType":5126,"count":24,"max":[0.625,1.875,0.625],"min":[-0.625,-1.875,-0.625],"type":"VEC3"},{"bufferView":17,"componentType":5126,"count":24,"max":[1,1,1],"min":[-1,-1,-1],"type":"VEC3"},{"bufferView":18,"componentType":5126,"count":24,"max":[0.875,0.75],"min":[0.6875,0],"type":"VEC2"},{"bufferView":19,"componentType":5123,"count":36,"max":[23],"min":[0],"type":"SCALAR"},{"bufferView":20,"componentType":5126,"count":24,"max":[1.25,1.875,0.625],"min":[0,-1.875,-0.625],"type":"VEC3"},{"bufferView":21,"componentType":5126,"count":24,"max":[1,1,1],"min":[-1,-1,-1],"type":"VEC3"},{"bufferView":22,"componentType":5126,"count":24,"max":[0.875,0.875],"min":[0,0],"type":"VEC2"},{"bufferView":23,"componentType":5123,"count":36,"max":[23],"min":[0],"type":"SCALAR"},{"bufferView":24,"componentType":5126,"count":24,"max":[0.625,1.875,0.625],"min":[-0.625,-1.875,-0.625],"type":"VEC3"},{"bufferView":25,"componentType":5126,"count":24,"max":[1,1,1],"min":[-1,-1,-1],"type":"VEC3"},{"bufferView":26,"componentType":5126,"count":24,"max":[0.8125,0.9375],"min":[0.40625,0.5625],"type":"VEC2"},{"bufferView":27,"componentType":5123,"count":36,"max":[23],"min":[0],"type":"SCALAR"},{"bufferView":28,"componentType":5126,"count":24,"max":[1.25,1.875,0.625],"min":[0,-1.875,-0.625],"type":"VEC3"},{"bufferView":29,"componentType":5126,"count":24,"max":[1,1,1],"min":[-1,-1,-1],"type":"VEC3"},{"bufferView":30,"componentType":5126,"count":24,"max":[0.875,0.9375],"min":[0.1875,0.1875],"type":"VEC2"},{"bufferView":31,"componentType":5123,"count":36,"max":[23],"min":[0],"type":"SCALAR"},{"bufferView":32,"componentType":5126,"count":24,"max":[1.25,2.5,1.25],"min":[-1.25,0,-1.25],"type":"VEC3"},{"bufferView":33,"componentType":5126,"count":24,"max":[1,1,1],"min":[-1,-1,-1],"type":"VEC3"},{"bufferView":34,"componentType":5126,"count":24,"max":[0.5625,0.59375],"min":[0.1875,0.09375],"type":"VEC2"},{"bufferView":35,"componentType":5123,"count":36,"max":[23],"min":[0],"type":"SCALAR"},{"bufferView":36,"componentType":5126,"count":24,"max":[1.875,5.625,0.625],"min":[-1.875,-1.25,-1.25],"type":"VEC3"},{"bufferView":37,"componentType":5126,"count":24,"max":[1,1,1],"min":[-1,-1,-1],"type":"VEC3"},{"bufferView":38,"componentType":5126,"count":24,"max":[0.5625,0.6875],"min":[0,0],"type":"VEC2"},{"bufferView":39,"componentType":5123,"count":36,"max":[23],"min":[0],"type":"SCALAR"},{"bufferView":40,"componentType":5126,"count":20,"max":[1.09375,0.625,0.46875],"min":[-0.46875,0,-1.09375],"type":"VEC3"},{"bufferView":41,"componentType":5126,"count":20,"max":[1,0,1],"min":[-1,-1,-1],"type":"VEC3"},{"bufferView":42,"componentType":5126,"count":20,"max":[0.921875,0.875],"min":[0.3125,0.75],"type":"VEC2"},{"bufferView":43,"componentType":5123,"count":30,"max":[19],"min":[0],"type":"SCALAR"},{"bufferView":44,"componentType":5126,"count":1,"max":[0],"min":[0],"type":"SCALAR"},{"bufferView":45,"componentType":5126,"count":1,"max":[0,0,0,1],"min":[0,0,0,1],"type":"VEC4"},{"bufferView":46,"componentType":5126,"count":1,"max":[0],"min":[0],"type":"SCALAR"},{"bufferView":47,"componentType":5126,"count":1,"max":[0,6.25,0],"min":[0,6.25,0],"type":"VEC3"},{"bufferView":48,"componentType":5126,"count":1,"max":[0],"min":[0],"type":"SCALAR"},{"bufferView":49,"componentType":5126,"count":1,"max":[1,1,1],"min":[1,1,1],"type":"VEC3"},{"bufferView":50,"componentType":5126,"count":1,"max":[0],"min":[0],"type":"SCALAR"},{"bufferView":51,"componentType":5126,"count":1,"max":[0,0,0,1],"min":[0,0,0,1],"type":"VEC4"},{"bufferView":52,"componentType":5126,"count":1,"max":[0],"min":[0],"type":"SCALAR"},{"bufferView":53,"componentType":5126,"count":1,"max":[-1.875,5.625,-0.3125],"min":[-1.875,5.625,-0.3125],"type":"VEC3"},{"bufferView":54,"componentType":5126,"count":1,"max":[0],"min":[0],"type":"SCALAR"},{"bufferView":55,"componentType":5126,"count":1,"max":[1,1,1],"min":[1,1,1],"type":"VEC3"},{"bufferView":56,"componentType":5126,"count":1,"max":[0],"min":[0],"type":"SCALAR"},{"bufferView":57,"componentType":5126,"count":1,"max":[0,0,0,1],"min":[0,0,0,1],"type":"VEC4"},{"bufferView":58,"componentType":5126,"count":1,"max":[0],"min":[0],"type":"SCALAR"},{"bufferView":59,"componentType":5126,"count":1,"max":[-0.625,-3.125,0],"min":[-0.625,-3.125,0],"type":"VEC3"},{"bufferView":60,"componentType":5126,"count":1,"max":[0],"min":[0],"type":"SCALAR"},{"bufferView":61,"componentType":5126,"count":1,"max":[1,1,1],"min":[1,1,1],"type":"VEC3"},{"bufferView":62,"componentType":5126,"count":1,"max":[0],"min":[0],"type":"SCALAR"},{"bufferView":63,"componentType":5126,"count":1,"max":[0,0,0,1],"min":[0,0,0,1],"type":"VEC4"},{"bufferView":64,"componentType":5126,"count":1,"max":[0],"min":[0],"type":"SCALAR"},{"bufferView":65,"componentType":5126,"count":1,"max":[1.875,5.625,-0.3125],"min":[1.875,5.625,-0.3125],"type":"VEC3"},{"bufferView":66,"componentType":5126,"count":1,"max":[0],"min":[0],"type":"SCALAR"},{"bufferView":67,"componentType":5126,"count":1,"max":[1,1,1],"min":[1,1,1],"type":"VEC3"},{"bufferView":68,"componentType":5126,"count":1,"max":[0],"min":[0],"type":"SCALAR"},{"bufferView":69,"componentType":5126,"count":1,"max":[0,0,0,1],"min":[0,0,0,1],"type":"VEC4"},{"bufferView":70,"componentType":5126,"count":1,"max":[0],"min":[0],"type":"SCALAR"},{"bufferView":71,"componentType":5126,"count":1,"max":[0.625,-3.125,0],"min":[0.625,-3.125,0],"type":"VEC3"},{"bufferView":72,"componentType":5126,"count":1,"max":[0],"min":[0],"type":"SCALAR"},{"bufferView":73,"componentType":5126,"count":1,"max":[1,1,1],"min":[1,1,1],"type":"VEC3"},{"bufferView":74,"componentType":5126,"count":1,"max":[0],"min":[0],"type":"SCALAR"},{"bufferView":75,"componentType":5126,"count":1,"max":[0,0,0,1],"min":[0,0,0,1],"type":"VEC4"},{"bufferView":76,"componentType":5126,"count":1,"max":[0],"min":[0],"type":"SCALAR"},{"bufferView":77,"componentType":5126,"count":1,"max":[0.9375,0,-0.3125],"min":[0.9375,0,-0.3125],"type":"VEC3"},{"bufferView":78,"componentType":5126,"count":1,"max":[0],"min":[0],"type":"SCALAR"},{"bufferView":79,"componentType":5126,"count":1,"max":[1,1,1],"min":[1,1,1],"type":"VEC3"},{"bufferView":80,"componentType":5126,"count":1,"max":[0],"min":[0],"type":"SCALAR"},{"bufferView":81,"componentType":5126,"count":1,"max":[0,0,0,1],"min":[0,0,0,1],"type":"VEC4"},{"bufferView":82,"componentType":5126,"count":1,"max":[0],"min":[0],"type":"SCALAR"},{"bufferView":83,"componentType":5126,"count":1,"max":[0,-3.125,0],"min":[0,-3.125,0],"type":"VEC3"},{"bufferView":84,"componentType":5126,"count":1,"max":[0],"min":[0],"type":"SCALAR"},{"bufferView":85,"componentType":5126,"count":1,"max":[1,1,1],"min":[1,1,1],"type":"VEC3"},{"bufferView":86,"componentType":5126,"count":1,"max":[0],"min":[0],"type":"SCALAR"},{"bufferView":87,"componentType":5126,"count":1,"max":[0,0,0,1],"min":[0,0,0,1],"type":"VEC4"},{"bufferView":88,"componentType":5126,"count":1,"max":[0],"min":[0],"type":"SCALAR"},{"bufferView":89,"componentType":5126,"count":1,"max":[-0.9375,0,-0.3125],"min":[-0.9375,0,-0.3125],"type":"VEC3"},{"bufferView":90,"componentType":5126,"count":1,"max":[0],"min":[0],"type":"SCALAR"},{"bufferView":91,"componentType":5126,"count":1,"max":[1,1,1],"min":[1,1,1],"type":"VEC3"},{"bufferView":92,"componentType":5126,"count":1,"max":[0],"min":[0],"type":"SCALAR"},{"bufferView":93,"componentType":5126,"count":1,"max":[0,0,0,1],"min":[0,0,0,1],"type":"VEC4"},{"bufferView":94,"componentType":5126,"count":1,"max":[0],"min":[0],"type":"SCALAR"},{"bufferView":95,"componentType":5126,"count":1,"max":[0,-3.125,0],"min":[0,-3.125,0],"type":"VEC3"},{"bufferView":96,"componentType":5126,"count":1,"max":[0],"min":[0],"type":"SCALAR"},{"bufferView":97,"componentType":5126,"count":1,"max":[1,1,1],"min":[1,1,1],"type":"VEC3"},{"bufferView":98,"componentType":5126,"count":1,"max":[0],"min":[0],"type":"SCALAR"},{"bufferView":99,"componentType":5126,"count":1,"max":[0,0,0,1],"min":[0,0,0,1],"type":"VEC4"},{"bufferView":100,"componentType":5126,"count":1,"max":[0],"min":[0],"type":"SCALAR"},{"bufferView":101,"componentType":5126,"count":1,"max":[0,8.75,-0.3125],"min":[0,8.75,-0.3125],"type":"VEC3"},{"bufferView":102,"componentType":5126,"count":1,"max":[0],"min":[0],"type":"SCALAR"},{"bufferView":103,"componentType":5126,"count":1,"max":[1,1,1],"min":[1,1,1],"type":"VEC3"}],"materials":[{"pbrMetallicRoughness":{"metallicFactor":0,"roughnessFactor":1,"baseColorTexture":{"index":0}},"alphaMode":"MASK","alphaCutoff":0.05,"doubleSided":true}],"textures":[{"sampler":0,"source":0,"name":"player"}],"samplers":[{"magFilter":9728,"minFilter":9728,"wrapS":33071,"wrapT":33071}],"images":[{"mimeType":"image/png","name":"player.png","uri":"player.png"}],"meshes":[{"primitives":[{"mode":4,"attributes":{"POSITION":0,"NORMAL":1,"TEXCOORD_0":2},"indices":3,"material":0}]},{"primitives":[{"mode":4,"attributes":{"POSITION":4,"NORMAL":5,"TEXCOORD_0":6},"indices":7,"material":0}]},{"primitives":[{"mode":4,"attributes":{"POSITION":8,"NORMAL":9,"TEXCOORD_0":10},"indices":11,"material":0}]},{"primitives":[{"mode":4,"attributes":{"POSITION":12,"NORMAL":13,"TEXCOORD_0":14},"indices":15,"material":0}]},{"primitives":[{"mode":4,"attributes":{"POSITION":16,"NORMAL":17,"TEXCOORD_0":18},"indices":19,"material":0}]},{"primitives":[{"mode":4,"attributes":{"POSITION":20,"NORMAL":21,"TEXCOORD_0":22},"indices":23,"material":0}]},{"primitives":[{"mode":4,"attributes":{"POSITION":24,"NORMAL":25,"TEXCOORD_0":26},"indices":27,"material":0}]},{"primitives":[{"mode":4,"attributes":{"POSITION":28,"NORMAL":29,"TEXCOORD_0":30},"indices":31,"material":0}]},{"primitives":[{"mode":4,"attributes":{"POSITION":32,"NORMAL":33,"TEXCOORD_0":34},"indices":35,"material":0}]},{"primitives":[{"mode":4,"attributes":{"POSITION":36,"NORMAL":37,"TEXCOORD_0":38},"indices":39,"material":0}]},{"primitives":[{"mode":4,"attributes":{"POSITION":40,"NORMAL":41,"TEXCOORD_0":42},"indices":43,"material":0}]}],"animations":[{"name":"animation","samplers":[{"input":44,"output":45,"interpolation":"LINEAR"},{"input":46,"output":47,"interpolation":"LINEAR"},{"input":48,"output":49,"interpolation":"LINEAR"},{"input":50,"output":51,"interpolation":"LINEAR"},{"input":52,"output":53,"interpolation":"LINEAR"},{"input":54,"output":55,"interpolation":"LINEAR"},{"input":56,"output":57,"interpolation":"LINEAR"},{"input":58,"output":59,"interpolation":"LINEAR"},{"input":60,"output":61,"interpolation":"LINEAR"},{"input":62,"output":63,"interpolation":"LINEAR"},{"input":64,"output":65,"interpolation":"LINEAR"},{"input":66,"output":67,"interpolation":"LINEAR"},{"input":68,"output":69,"interpolation":"LINEAR"},{"input":70,"output":71,"interpolation":"LINEAR"},{"input":72,"output":73,"interpolation":"LINEAR"},{"input":74,"output":75,"interpolation":"LINEAR"},{"input":76,"output":77,"interpolation":"LINEAR"},{"input":78,"output":79,"interpolation":"LINEAR"},{"input":80,"output":81,"interpolation":"LINEAR"},{"input":82,"output":83,"interpolation":"LINEAR"},{"input":84,"output":85,"interpolation":"LINEAR"},{"input":86,"output":87,"interpolation":"LINEAR"},{"input":88,"output":89,"interpolation":"LINEAR"},{"input":90,"output":91,"interpolation":"LINEAR"},{"input":92,"output":93,"interpolation":"LINEAR"},{"input":94,"output":95,"interpolation":"LINEAR"},{"input":96,"output":97,"interpolation":"LINEAR"},{"input":98,"output":99,"interpolation":"LINEAR"},{"input":100,"output":101,"interpolation":"LINEAR"},{"input":102,"output":103,"interpolation":"LINEAR"}],"channels":[{"sampler":0,"target":{"node":20,"path":"rotation"}},{"sampler":1,"target":{"node":20,"path":"translation"}},{"sampler":2,"target":{"node":20,"path":"scale"}},{"sampler":3,"target":{"node":3,"path":"rotation"}},{"sampler":4,"target":{"node":3,"path":"translation"}},{"sampler":5,"target":{"node":3,"path":"scale"}},{"sampler":6,"target":{"node":1,"path":"rotation"}},{"sampler":7,"target":{"node":1,"path":"translation"}},{"sampler":8,"target":{"node":1,"path":"scale"}},{"sampler":9,"target":{"node":7,"path":"rotation"}},{"sampler":10,"target":{"node":7,"path":"translation"}},{"sampler":11,"target":{"node":7,"path":"scale"}},{"sampler":12,"target":{"node":5,"path":"rotation"}},{"sampler":13,"target":{"node":5,"path":"translation"}},{"sampler":14,"target":{"node":5,"path":"scale"}},{"sampler":15,"target":{"node":11,"path":"rotation"}},{"sampler":16,"target":{"node":11,"path":"translation"}},{"sampler":17,"target":{"node":11,"path":"scale"}},{"sampler":18,"target":{"node":9,"path":"rotation"}},{"sampler":19,"target":{"node":9,"path":"translation"}},{"sampler":20,"target":{"node":9,"path":"scale"}},{"sampler":21,"target":{"node":15,"path":"rotation"}},{"sampler":22,"target":{"node":15,"path":"translation"}},{"sampler":23,"target":{"node":15,"path":"scale"}},{"sampler":24,"target":{"node":13,"path":"rotation"}},{"sampler":25,"target":{"node":13,"path":"translation"}},{"sampler":26,"target":{"node":13,"path":"scale"}},{"sampler":27,"target":{"node":17,"path":"rotation"}},{"sampler":28,"target":{"node":17,"path":"translation"}},{"sampler":29,"target":{"node":17,"path":"scale"}}]}]}